<?xml version="1.0" encoding="UTF-8"?>
<!DOCTYPE svg PUBLIC "-//W3C//DTD SVG 1.1//EN" "http://www.w3.org/Graphics/SVG/1.1/DTD/svg11.dtd">
<!-- Creator: CorelDRAW -->
<svg xmlns="http://www.w3.org/2000/svg" xml:space="preserve" width="210mm" height="297mm" version="1.1" style="shape-rendering:geometricPrecision; text-rendering:geometricPrecision; image-rendering:optimizeQuality; fill-rule:evenodd; clip-rule:evenodd"
viewBox="0 0 21000 29700"
 xmlns:xlink="http://www.w3.org/1999/xlink"
 xmlns:xodm="http://www.corel.com/coreldraw/odm/2003">
 <defs>
  <style type="text/css">
   <![CDATA[
    .fil0 {fill:#FEFEFE;fill-rule:nonzero}
    .fil2 {fill:#00CEC9;fill-rule:nonzero}
    .fil1 {fill:#FF9900;fill-rule:nonzero}
   ]]>
  </style>
 </defs>
 <g id="Слой_x0020_1">
  <metadata id="CorelCorpID_0Corel-Layer"/>
  <g id="_1728945517872">
   <path class="fil0" d="M4494.44 12824.85l-320.3 -56.83c36.17,-130.88 98.59,-227.74 186.85,-290.6 88.25,-62.85 219.56,-94.28 393.48,-94.28 158,0 275.96,18.51 353.45,55.97 77.06,37.45 131.74,84.81 163.17,142.5 31.42,57.69 47.35,163.16 47.35,317.29l-5.16 413.29c0,117.53 5.59,204.49 16.79,260.46 11.19,55.96 32.29,115.8 63.28,179.52l-351.29 0c-9.05,-23.25 -20.67,-57.69 -34.02,-103.32 -5.59,-21.1 -9.9,-34.87 -12.48,-41.33 -60.27,59.41 -124.85,103.75 -193.73,133.46 -68.88,29.7 -142.07,44.77 -219.99,44.77 -137.34,0 -245.82,-37.45 -325.04,-112.36 -79.21,-74.48 -118.82,-169.19 -118.82,-283.71 0,-75.34 18.08,-142.93 54.24,-202.34 36.17,-58.98 86.54,-104.62 151.98,-136.04 65,-31.43 158.85,-58.98 281.55,-82.66 165.32,-31 280.26,-60.27 343.98,-86.96l0 -35.74c0,-68.88 -16.79,-117.96 -50.37,-147.66 -34.01,-29.28 -97.73,-43.91 -191.15,-43.91 -63.28,0 -112.36,12.48 -147.66,37.88 -35.74,24.97 -64.15,69.31 -86.11,132.6zm475.29 286.72c-45.2,15.07 -117.1,33.15 -215.69,54.24 -98.15,21.1 -162.73,41.76 -192.87,61.57 -46.06,33.15 -69.31,74.47 -69.31,124.84 0,49.94 18.51,92.56 55.54,128.73 37.02,36.16 83.95,54.24 141.2,54.24 63.72,0 124.85,-21.09 182.97,-62.85 42.62,-32.29 71.04,-71.04 84.38,-117.53 9.04,-30.14 13.78,-87.83 13.78,-172.64l0 -70.6zm446.48 263.47l356.46 -54.24c15.07,68.45 45.64,120.54 92.13,155.84 46.07,35.74 111.08,53.39 194.16,53.39 91.7,0 160.59,-16.79 207.08,-50.37 31,-23.68 46.5,-55.54 46.5,-95.15 0,-26.69 -8.61,-49.08 -25.4,-66.73 -17.66,-16.79 -57.26,-32.72 -118.39,-46.92 -286.3,-63.29 -467.54,-120.98 -544.17,-173.07 -106.34,-72.75 -159.29,-173.49 -159.29,-302.22 0,-116.67 46.06,-214.39 137.76,-293.61 91.7,-79.21 233.77,-118.82 426.21,-118.82 183.4,0 319.87,30.14 408.99,89.98 89.11,60.27 150.67,148.96 184.25,266.49l-333.21 61.99c-14.21,-52.52 -41.76,-92.99 -81.8,-120.97 -40.04,-27.99 -97.29,-41.76 -171.77,-41.76 -93.85,0 -161.01,12.91 -201.91,39.17 -27.13,18.52 -40.47,42.62 -40.47,71.9 0,25.4 11.62,46.92 35.3,64.58 32.29,23.67 142.93,56.82 332.36,99.87 189.42,43.06 321.59,95.58 396.5,158 74.48,62.86 111.5,151.11 111.5,263.91 0,122.69 -51.23,228.6 -154.12,316.85 -102.47,88.26 -254.44,132.6 -455.92,132.6 -182.53,0 -327.18,-37.02 -433.95,-110.64 -106.34,-73.62 -176.08,-173.5 -208.8,-300.07zm1267.9 -963.48l377.13 0 321.59 951 313.84 -951 366.8 0 -472.7 1290.24 -85.25 232.91c-31.42,77.92 -61.13,137.33 -89.54,178.66 -27.99,40.9 -60.7,74.48 -97.3,99.88 -36.59,25.83 -81.79,45.63 -135.61,59.84 -53.38,14.21 -114.08,21.52 -181.67,21.52 -68.03,0 -135.19,-7.31 -201.05,-21.52l-31 -276.39c55.54,10.76 105.91,16.36 150.68,16.36 82.66,0 143.79,-24.11 183.4,-72.76 39.6,-48.64 70.17,-110.64 91.27,-185.55l-510.59 -1343.19zm1355.72 963.48l356.46 -54.24c15.07,68.45 45.64,120.54 92.13,155.84 46.07,35.74 111.08,53.39 194.16,53.39 91.7,0 160.59,-16.79 207.08,-50.37 31,-23.68 46.5,-55.54 46.5,-95.15 0,-26.69 -8.61,-49.08 -25.4,-66.73 -17.66,-16.79 -57.26,-32.72 -118.39,-46.92 -286.3,-63.29 -467.54,-120.98 -544.17,-173.07 -106.34,-72.75 -159.29,-173.49 -159.29,-302.22 0,-116.67 46.06,-214.39 137.76,-293.61 91.7,-79.21 233.77,-118.82 426.21,-118.82 183.4,0 319.87,30.14 408.99,89.98 89.11,60.27 150.67,148.96 184.25,266.49l-333.21 61.99c-14.21,-52.52 -41.76,-92.99 -81.8,-120.97 -40.04,-27.99 -97.29,-41.76 -171.77,-41.76 -93.85,0 -161.01,12.91 -201.91,39.17 -27.13,18.52 -40.47,42.62 -40.47,71.9 0,25.4 11.62,46.92 35.3,64.58 32.29,23.67 142.93,56.82 332.36,99.87 189.42,43.06 321.59,95.58 396.5,158 74.48,62.86 111.5,151.11 111.5,263.91 0,122.69 -51.23,228.6 -154.12,316.85 -102.47,88.26 -254.44,132.6 -455.92,132.6 -182.53,0 -327.18,-37.02 -433.95,-110.64 -106.34,-73.62 -176.08,-173.5 -208.8,-300.07zm2050.57 -963.48l0 281.55 -242.81 0 0 542.88c0,110.21 2.15,174.35 6.89,192.44 4.73,18.08 15.07,33.14 31.86,45.2 16.36,11.62 36.16,17.65 59.84,17.65 33.15,0 80.5,-11.19 142.93,-34.01l29.7 275.53c-82.23,35.3 -175.22,52.95 -279.4,52.95 -63.72,0 -120.97,-10.76 -172.2,-32.29 -51.24,-21.52 -88.69,-49.51 -112.37,-83.52 -24.11,-34.44 -40.47,-80.5 -49.94,-139.05 -7.32,-41.33 -11.19,-124.85 -11.19,-250.99l0 -586.79 -162.73 0 0 -281.55 162.73 0 0 -266.06 353.88 -209.23 0 475.29 242.81 0zm898.08 916.99l353.88 59.41c-45.2,129.58 -117.1,228.17 -214.82,296.19 -98.16,67.59 -220.86,101.6 -367.66,101.6 -232.91,0 -405.54,-76.2 -517.04,-228.6 -88.26,-122.27 -132.6,-276.39 -132.6,-462.8 0,-222.15 58.12,-396.5 173.92,-522.21 115.81,-126.14 262.62,-189 439.99,-189 198.89,0 356.03,65.87 471.41,197.61 114.94,131.73 170.05,333.64 164.88,605.73l-885.99 0c2.58,105.04 31,186.84 85.67,245.39 54.25,58.55 122.27,87.82 203.2,87.82 55.54,0 102.04,-15.06 139.49,-45.2 37.89,-30.14 66.3,-78.78 85.67,-145.94zm20.67 -359.05c-2.59,-102.89 -28.85,-181.25 -79.22,-234.63 -50.37,-53.81 -111.5,-80.5 -183.83,-80.5 -77.06,0 -140.77,28.41 -191.14,84.81 -50.37,56.39 -74.91,133.45 -74.05,230.32l528.24 0zm490.39 -557.94l325.47 0 0 182.96c116.67,-140.77 255.72,-211.38 417.16,-211.38 85.67,0 160.15,17.65 223.01,52.96 63.28,35.3 114.94,88.68 154.98,160.15 58.98,-71.47 122.7,-124.85 190.72,-160.15 68.02,-35.31 140.78,-52.96 218.27,-52.96 98.15,0 181.24,19.81 249.7,59.84 68.02,40.04 118.82,98.59 152.4,176.08 24.54,56.83 36.59,149.39 36.59,277.25l0 855.86 -353.88 0 0 -765.02c0,-133.03 -12.06,-218.7 -36.59,-257.01 -32.72,-50.37 -83.52,-75.77 -151.54,-75.77 -49.51,0 -96.44,15.06 -140.35,45.2 -43.48,30.57 -75.34,74.91 -94.71,133.03 -19.38,58.55 -28.85,150.68 -28.85,276.82l0 642.75 -353.88 0 0 -733.59c0,-130.02 -6.46,-214.4 -18.94,-251.85 -12.49,-37.89 -31.86,-66.3 -58.55,-84.81 -26.26,-18.51 -62.43,-27.55 -107.63,-27.55 -54.67,0 -103.75,14.63 -147.23,43.91 -43.92,29.7 -74.91,71.89 -93.86,127.43 -18.94,55.53 -28.41,147.66 -28.41,275.96l0 650.5 -353.88 0 0 -1340.61z"/>
   <path class="fil1" d="M14493.66 12783.42l-320.3 -56.83c36.17,-130.88 98.59,-227.74 186.85,-290.6 88.25,-62.85 219.56,-94.28 393.48,-94.28 158,0 275.96,18.51 353.45,55.97 77.06,37.45 131.74,84.81 163.17,142.5 31.42,57.69 47.35,163.16 47.35,317.29l-5.16 413.29c0,117.53 5.59,204.49 16.79,260.46 11.19,55.96 32.29,115.8 63.28,179.52l-351.29 0c-9.05,-23.25 -20.67,-57.69 -34.02,-103.32 -5.59,-21.1 -9.9,-34.87 -12.48,-41.33 -60.27,59.41 -124.85,103.75 -193.73,133.46 -68.88,29.7 -142.07,44.77 -219.99,44.77 -137.34,0 -245.82,-37.45 -325.04,-112.36 -79.21,-74.48 -118.82,-169.19 -118.82,-283.71 0,-75.34 18.08,-142.93 54.24,-202.34 36.17,-58.98 86.54,-104.62 151.98,-136.04 65,-31.43 158.85,-58.98 281.55,-82.66 165.32,-31 280.26,-60.27 343.98,-86.96l0 -35.74c0,-68.88 -16.79,-117.96 -50.37,-147.66 -34.01,-29.28 -97.73,-43.91 -191.15,-43.91 -63.28,0 -112.36,12.48 -147.66,37.88 -35.74,24.97 -64.15,69.31 -86.11,132.6zm475.29 286.72c-45.2,15.07 -117.1,33.15 -215.69,54.24 -98.15,21.1 -162.73,41.76 -192.87,61.57 -46.06,33.15 -69.31,74.47 -69.31,124.84 0,49.94 18.51,92.56 55.54,128.73 37.02,36.16 83.95,54.24 141.2,54.24 63.72,0 124.85,-21.09 182.97,-62.85 42.62,-32.29 71.04,-71.04 84.38,-117.53 9.04,-30.14 13.78,-87.83 13.78,-172.64l0 -70.6zm573.05 -880.83l0 -328.05 353.88 0 0 328.05 -353.88 0zm0 1521.43l0 -1340.61 353.88 0 0 1340.61 -353.88 0z"/>
   <polygon class="fil2" points="13647.31,13744.32 13647.31,13390.44 14001.19,13390.44 14001.19,13744.32 "/>
  </g>
 </g>
</svg>
