<?xml version="1.0" encoding="UTF-8"?>
<!DOCTYPE svg PUBLIC "-//W3C//DTD SVG 1.1//EN" "http://www.w3.org/Graphics/SVG/1.1/DTD/svg11.dtd">
<!-- Creator: CorelDRAW -->
<svg xmlns="http://www.w3.org/2000/svg" xml:space="preserve" width="56.7965mm" height="12.1361mm" version="1.1" style="shape-rendering:geometricPrecision; text-rendering:geometricPrecision; image-rendering:optimizeQuality; fill-rule:evenodd; clip-rule:evenodd"
viewBox="0 0 194.57 41.57"
 xmlns:xlink="http://www.w3.org/1999/xlink"
 xmlns:xodm="http://www.corel.com/coreldraw/odm/2003">
 <defs>
  <style type="text/css">
   <![CDATA[
    .fil0 {fill:#F1EDE3;fill-rule:nonzero}
    .fil1 {fill:#F5B501;fill-rule:nonzero}
   ]]>
  </style>
 </defs>
 <g id="Слой_x0020_1">
  <metadata id="CorelCorpID_0Corel-Layer"/>
  <path class="fil0" d="M73.16 0.26l0 40.77 4.54 0 0 -36.4 1.46 0c0.47,0 0.84,0.03 1.14,0.09 0.29,0.06 0.51,0.18 0.67,0.38 0.16,0.19 0.27,0.44 0.35,0.73 0.08,0.29 0.12,0.67 0.12,1.14l0 8.85c0,0.58 -0.03,1.06 -0.09,1.43 -0.06,0.37 -0.16,0.65 -0.32,0.84 -0.16,0.19 -0.39,0.33 -0.7,0.41 -0.31,0.08 -0.7,0.12 -1.17,0.12l-2.1 0 0 4.37 2.21 0c0.43,0 0.78,0.03 1.05,0.09 0.27,0.06 0.5,0.17 0.67,0.35 0.17,0.17 0.29,0.43 0.35,0.76 0.06,0.33 0.09,0.73 0.09,1.19l0 15.67 4.54 0 0 -14.85c0,-1.13 -0.09,-2.08 -0.26,-2.85 -0.17,-0.78 -0.49,-1.39 -0.93,-1.83 -0.45,-0.45 -1.05,-0.76 -1.81,-0.93 -0.76,-0.17 -1.7,-0.24 -2.82,-0.2l0 0.52c1.09,0 2.02,-0.08 2.8,-0.23 0.78,-0.16 1.39,-0.45 1.83,-0.87 0.45,-0.43 0.76,-1.03 0.93,-1.81 0.18,-0.78 0.26,-1.73 0.26,-2.85l0 -8.15c0,-1.24 -0.12,-2.28 -0.35,-3.12 -0.23,-0.84 -0.61,-1.52 -1.14,-2.07 -0.52,-0.54 -1.19,-0.93 -2.01,-1.17 -0.82,-0.23 -1.84,-0.35 -3.09,-0.35l-6.23 0zm-12.52 27.26l0 4.19 6.93 0 0 -4.19 -6.93 0zm0.17 -27.26l-3.67 40.77 4.37 0 2.97 -39.32 -0.7 0 2.91 39.32 4.43 0 -3.67 -40.77 -6.64 0zm-16.77 0l0 40.77 4.54 0 0 -36.4 1.46 0c0.43,0 0.79,0.03 1.08,0.09 0.29,0.06 0.53,0.17 0.73,0.35 0.19,0.18 0.32,0.42 0.38,0.73 0.06,0.31 0.09,0.7 0.09,1.16l0 9.38c0,0.5 -0.03,0.93 -0.09,1.28 -0.06,0.35 -0.17,0.62 -0.35,0.82 -0.17,0.19 -0.41,0.33 -0.7,0.41 -0.29,0.08 -0.67,0.12 -1.14,0.12l-2.16 0 0 4.37 2.68 0c1.17,0 2.15,-0.13 2.94,-0.38 0.8,-0.25 1.44,-0.64 1.92,-1.16 0.49,-0.52 0.84,-1.21 1.08,-2.07 0.23,-0.85 0.35,-1.9 0.35,-3.15l0 -9.73c0,-1.2 -0.12,-2.22 -0.35,-3.06 -0.23,-0.83 -0.6,-1.51 -1.11,-2.04 -0.5,-0.52 -1.16,-0.9 -1.95,-1.14 -0.8,-0.23 -1.78,-0.35 -2.94,-0.35l-6.46 0zm-13.45 0l0.06 40.77 11.07 0 0 -4.37 -6.52 0 0 -36.4 -4.6 0zm-15.67 0l0 34.48c0,1.13 0.13,2.1 0.38,2.91 0.25,0.82 0.65,1.49 1.19,2.04 0.54,0.54 1.2,0.95 1.98,1.22 0.78,0.27 1.71,0.41 2.8,0.41l0.12 0c1.05,0 1.97,-0.14 2.77,-0.41 0.8,-0.27 1.46,-0.68 1.98,-1.22 0.52,-0.54 0.92,-1.22 1.19,-2.04 0.27,-0.82 0.41,-1.79 0.41,-2.91l0 -34.48 -4.54 0 0 34.54c0,0.35 -0.04,0.66 -0.12,0.93 -0.08,0.27 -0.19,0.5 -0.35,0.67 -0.16,0.18 -0.34,0.31 -0.55,0.41 -0.21,0.1 -0.48,0.15 -0.79,0.15l-0.12 0c-0.31,0 -0.58,-0.05 -0.82,-0.15 -0.23,-0.1 -0.42,-0.23 -0.55,-0.41 -0.14,-0.17 -0.24,-0.4 -0.32,-0.67 -0.08,-0.27 -0.12,-0.58 -0.12,-0.93l0 -34.54 -4.54 0zm-10.72 3.49l0 37.28 4.48 0 0.06 -37.28 -4.54 0zm-4.19 -3.49l0.06 4.37 12.81 0 0 -4.37 -12.87 0z"/>
  <path class="fil1" d="M103.51 0.29l0 4.39 -6.85 0 0 13.88 5.97 0 0 4.39 -5.97 0 0 13.94 7.14 0 0 4.39 -11.71 0 0 -40.99 11.42 0zm6.68 0l2.69 14.76 2.64 -14.76 4.39 0 -3.69 19.32 3.98 21.67 -4.51 0 -2.81 -16.4 -2.87 16.4 -4.45 0 3.92 -21.67 -3.63 -19.32 4.33 0zm18.62 0c2.34,0 3.98,0.5 4.92,1.49 0.94,1 1.41,2.7 1.41,5.12l0 9.84c0,2.46 -0.47,4.2 -1.41,5.21 -0.94,1.02 -2.56,1.52 -4.86,1.52l-2.05 0 0 17.8 -4.57 0 0 -40.99 6.56 0zm-0.47 18.8c0.9,0 1.49,-0.18 1.79,-0.53 0.29,-0.35 0.44,-1.05 0.44,-2.11l0 -9.43c0,-0.9 -0.16,-1.51 -0.47,-1.84 -0.31,-0.33 -0.9,-0.5 -1.76,-0.5l-1.52 0 0 14.4 1.52 0zm15.46 -18.8c2.42,0 4.12,0.51 5.09,1.52 0.98,1.02 1.46,2.75 1.46,5.21l0 8.2c0,1.76 -0.2,3.05 -0.59,3.86 -0.39,0.82 -1.15,1.39 -2.28,1.7 1.13,0.31 1.89,0.89 2.28,1.73 0.39,0.84 0.59,2.12 0.59,3.84l0 14.93 -4.57 0 0 -15.75c0,-0.98 -0.14,-1.62 -0.41,-1.93 -0.27,-0.31 -0.86,-0.47 -1.76,-0.47l-1.58 0 0 18.15 -4.57 0 0 -40.99 6.32 0zm-0.23 18.44c0.9,0 1.49,-0.18 1.79,-0.53 0.29,-0.35 0.44,-1.11 0.44,-2.28l0 -8.9c0,-0.9 -0.16,-1.51 -0.47,-1.84 -0.31,-0.33 -0.9,-0.5 -1.76,-0.5l-1.52 0 0 14.05 1.52 0zm21.14 -18.44l0 4.39 -6.85 0 0 13.88 5.97 0 0 4.39 -5.97 0 0 13.94 7.14 0 0 4.39 -11.71 0 0 -40.99 11.42 0zm8.55 -0.29c4.14,0 6.21,2.19 6.21,6.56l0 6.79 -4.51 0.12 0 -6.97c0,-1.41 -0.57,-2.11 -1.7,-2.11l-0.12 0c-1.13,0 -1.7,0.7 -1.7,2.11l0 4.22c0,0.78 0.03,1.45 0.09,2.02 0.06,0.57 0.16,1.08 0.29,1.55 0.14,0.47 0.34,0.91 0.61,1.32 0.27,0.41 0.6,0.85 1,1.32l2.81 3.34c0.66,0.74 1.21,1.44 1.64,2.11 0.43,0.66 0.78,1.35 1.05,2.05 0.27,0.7 0.46,1.47 0.56,2.31 0.1,0.84 0.15,1.79 0.15,2.84l0 5.39c0,4.41 -2.13,6.62 -6.38,6.62l-0.12 0c-4.26,0 -6.38,-2.21 -6.38,-6.62l0 -7.32 4.51 -0.12 0 7.49c0,1.44 0.61,2.17 1.82,2.17l0.12 0c1.25,0 1.87,-0.72 1.87,-2.17l0 -4.8c0,-1.64 -0.15,-2.94 -0.44,-3.89 -0.29,-0.96 -0.83,-1.88 -1.61,-2.78l-2.52 -2.99c-0.7,-0.82 -1.28,-1.57 -1.73,-2.25 -0.45,-0.68 -0.81,-1.39 -1.08,-2.11 -0.27,-0.72 -0.47,-1.48 -0.59,-2.28 -0.12,-0.8 -0.18,-1.71 -0.18,-2.72l0 -4.63c0,-4.37 2.07,-6.56 6.21,-6.56l0.12 0zm14.93 0c4.14,0 6.21,2.19 6.21,6.56l0 6.79 -4.51 0.12 0 -6.97c0,-1.41 -0.57,-2.11 -1.7,-2.11l-0.12 0c-1.13,0 -1.7,0.7 -1.7,2.11l0 4.22c0,0.78 0.03,1.45 0.09,2.02 0.06,0.57 0.16,1.08 0.29,1.55 0.14,0.47 0.34,0.91 0.61,1.32 0.27,0.41 0.6,0.85 1,1.32l2.81 3.34c0.66,0.74 1.21,1.44 1.64,2.11 0.43,0.66 0.78,1.35 1.05,2.05 0.27,0.7 0.46,1.47 0.56,2.31 0.1,0.84 0.15,1.79 0.15,2.84l0 5.39c0,4.41 -2.13,6.62 -6.38,6.62l-0.12 0c-4.26,0 -6.38,-2.21 -6.38,-6.62l0 -7.32 4.51 -0.12 0 7.49c0,1.44 0.61,2.17 1.82,2.17l0.12 0c1.25,0 1.87,-0.72 1.87,-2.17l0 -4.8c0,-1.64 -0.15,-2.94 -0.44,-3.89 -0.29,-0.96 -0.83,-1.88 -1.61,-2.78l-2.52 -2.99c-0.7,-0.82 -1.28,-1.57 -1.73,-2.25 -0.45,-0.68 -0.81,-1.39 -1.08,-2.11 -0.27,-0.72 -0.47,-1.48 -0.59,-2.28 -0.12,-0.8 -0.18,-1.71 -0.18,-2.72l0 -4.63c0,-4.37 2.07,-6.56 6.21,-6.56l0.12 0z"/>
 </g>
</svg>
