<?xml version="1.0" encoding="UTF-8"?>
<!DOCTYPE svg PUBLIC "-//W3C//DTD SVG 1.1//EN" "http://www.w3.org/Graphics/SVG/1.1/DTD/svg11.dtd">
<!-- Creator: CorelDRAW -->
<svg xmlns="http://www.w3.org/2000/svg" xml:space="preserve" width="210mm" height="297mm" version="1.1" style="shape-rendering:geometricPrecision; text-rendering:geometricPrecision; image-rendering:optimizeQuality; fill-rule:evenodd; clip-rule:evenodd"
viewBox="0 0 21000 29700"
 xmlns:xlink="http://www.w3.org/1999/xlink"
 xmlns:xodm="http://www.corel.com/coreldraw/odm/2003">
 <defs>
  <style type="text/css">
   <![CDATA[
    .fil2 {fill:#00CEC9;fill-rule:nonzero}
    .fil0 {fill:#2C2C54;fill-rule:nonzero}
    .fil1 {fill:#FF9900;fill-rule:nonzero}
   ]]>
  </style>
 </defs>
 <g id="Слой_x0020_1">
  <metadata id="CorelCorpID_0Corel-Layer"/>
  <g id="_2179820824880">
   <path class="fil0" d="M2986.44 12145.2l-454.86 -80.7c51.36,-185.87 140,-323.42 265.34,-412.69 125.33,-89.25 311.8,-133.89 558.79,-133.89 224.38,0 391.89,26.29 501.94,79.49 109.43,53.18 187.08,120.44 231.72,202.36 44.62,81.93 67.24,231.71 67.24,450.59l-7.33 586.92c0,166.91 7.94,290.4 23.85,369.88 15.89,79.47 45.85,164.45 89.86,254.94l-498.87 0c-12.85,-33.02 -29.35,-81.93 -48.31,-146.73 -7.94,-29.96 -14.06,-49.51 -17.72,-58.69 -85.59,84.37 -177.31,147.34 -275.12,189.53 -97.82,42.18 -201.76,63.58 -312.41,63.58 -195.04,0 -349.1,-53.18 -461.6,-159.57 -112.48,-105.77 -168.74,-240.26 -168.74,-402.9 0,-106.99 25.68,-202.97 77.03,-287.34 51.37,-83.76 122.9,-148.57 215.83,-193.19 92.31,-44.64 225.59,-83.76 399.83,-117.39 234.78,-44.02 398,-85.59 488.49,-123.49l0 -50.76c0,-97.82 -23.84,-167.51 -71.53,-209.69 -48.3,-41.58 -138.79,-62.36 -271.45,-62.36 -89.87,0 -159.57,17.72 -209.7,53.79 -50.75,35.46 -91.1,98.43 -122.28,188.31zm674.96 407.18c-64.19,21.4 -166.29,47.07 -306.3,77.02 -139.38,29.97 -231.1,59.31 -273.9,87.44 -65.41,47.08 -98.43,105.76 -98.43,177.29 0,70.92 26.29,131.44 78.88,182.81 52.57,51.35 119.22,77.02 200.52,77.02 90.49,0 177.3,-29.95 259.84,-89.25 60.52,-45.85 100.88,-100.88 119.82,-166.91 12.84,-42.8 19.57,-124.72 19.57,-245.16l0 -100.26zm634.06 374.15l506.21 -77.02c21.4,97.2 64.81,171.18 130.83,221.31 65.43,50.75 157.75,75.82 275.73,75.82 130.23,0 228.06,-23.85 294.08,-71.53 44.02,-33.63 66.04,-78.88 66.04,-135.13 0,-37.9 -12.23,-69.7 -36.07,-94.76 -25.08,-23.85 -81.32,-46.47 -168.13,-66.63 -406.58,-89.88 -663.96,-171.81 -772.78,-245.78 -151.02,-103.32 -226.21,-246.38 -226.21,-429.19 0,-165.68 65.41,-304.46 195.63,-416.96 130.22,-112.49 331.98,-168.74 605.27,-168.74 260.45,0 454.25,42.81 580.81,127.78 126.54,85.6 213.97,211.55 261.65,378.45l-473.19 88.03c-20.18,-74.58 -59.31,-132.05 -116.17,-171.79 -56.86,-39.75 -138.16,-59.3 -243.93,-59.3 -133.28,0 -228.65,18.33 -286.73,55.62 -38.53,26.31 -57.48,60.53 -57.48,102.11 0,36.07 16.51,66.63 50.13,91.71 45.86,33.62 202.98,80.69 471.99,141.83 269,61.15 456.7,135.73 563.08,224.38 105.77,89.26 158.34,214.59 158.34,374.78 0,174.23 -72.75,324.64 -218.87,449.96 -145.52,125.34 -361.33,188.31 -647.46,188.31 -259.21,0 -464.63,-52.57 -616.25,-157.12 -151.02,-104.55 -250.06,-246.39 -296.52,-426.14zm1800.56 -1368.25l535.57 0 456.69 1350.53 445.69 -1350.53 520.9 0 -671.29 1832.29 -121.07 330.76c-44.62,110.65 -86.81,195.02 -127.15,253.72 -39.75,58.08 -86.2,105.77 -138.18,141.84 -51.96,36.68 -116.15,64.8 -192.58,84.98 -75.81,20.18 -162.01,30.56 -257.99,30.56 -96.61,0 -191.99,-10.38 -285.52,-30.56l-44.02 -392.51c78.87,15.28 150.4,23.23 213.98,23.23 117.39,0 204.2,-34.23 260.45,-103.32 56.24,-69.08 99.65,-157.12 129.61,-263.51l-725.09 -1907.48zm1925.27 1368.25l506.22 -77.02c21.4,97.2 64.81,171.18 130.83,221.31 65.43,50.75 157.75,75.82 275.73,75.82 130.23,0 228.06,-23.85 294.08,-71.53 44.02,-33.63 66.03,-78.88 66.03,-135.13 0,-37.9 -12.22,-69.7 -36.07,-94.76 -25.08,-23.85 -81.31,-46.47 -168.12,-66.63 -406.58,-89.88 -663.96,-171.81 -772.79,-245.78 -151.01,-103.32 -226.21,-246.38 -226.21,-429.19 0,-165.68 65.41,-304.46 195.64,-416.96 130.22,-112.49 331.98,-168.74 605.26,-168.74 260.45,0 454.26,42.81 580.82,127.78 126.54,85.6 213.97,211.55 261.65,378.45l-473.19 88.03c-20.18,-74.58 -59.31,-132.05 -116.17,-171.79 -56.86,-39.75 -138.16,-59.3 -243.93,-59.3 -133.28,0 -228.65,18.33 -286.74,55.62 -38.52,26.31 -57.47,60.53 -57.47,102.11 0,36.07 16.5,66.63 50.13,91.71 45.86,33.62 202.98,80.69 471.99,141.83 269,61.15 456.69,135.73 563.08,224.38 105.77,89.26 158.34,214.59 158.34,374.78 0,174.23 -72.75,324.64 -218.87,449.96 -145.52,125.34 -361.33,188.31 -647.46,188.31 -259.21,0 -464.63,-52.57 -616.26,-157.12 -151.01,-104.55 -250.05,-246.39 -296.52,-426.14zm2912.05 -1368.25l0 399.84 -344.82 0 0 770.95c0,156.51 3.05,247.59 9.78,273.28 6.72,25.68 21.4,47.07 45.25,64.19 23.23,16.5 51.35,25.07 84.98,25.07 47.07,0 114.32,-15.89 202.97,-48.3l42.18 391.28c-116.77,50.13 -248.83,75.2 -396.78,75.2 -90.49,0 -171.79,-15.28 -244.54,-45.86 -72.77,-30.56 -125.95,-70.31 -159.58,-118.6 -34.24,-48.91 -57.47,-114.32 -70.92,-197.47 -10.4,-58.7 -15.89,-177.3 -15.89,-356.44l0 -833.3 -231.1 0 0 -399.84 231.1 0 0 -377.83 502.55 -297.13 0 674.96 344.82 0zm1275.37 1302.23l502.55 84.37c-64.19,184.02 -166.29,324.03 -305.07,420.62 -139.4,95.99 -313.64,144.29 -522.12,144.29 -330.76,0 -575.91,-108.21 -734.25,-324.64 -125.34,-173.64 -188.31,-392.5 -188.31,-657.23 0,-315.48 82.54,-563.07 246.99,-741.6 164.46,-179.13 372.95,-268.4 624.83,-268.4 282.45,0 505.61,93.55 669.46,280.63 163.23,187.07 241.49,473.81 234.15,860.21l-1258.21 0c3.66,149.17 44.02,265.33 121.66,348.48 77.04,83.15 173.64,124.71 288.57,124.71 78.87,0 144.91,-21.38 198.09,-64.19 53.81,-42.8 94.15,-111.87 121.66,-207.25zm29.35 -509.89c-3.67,-146.11 -40.97,-257.39 -112.5,-333.2 -71.53,-76.42 -158.34,-114.32 -261.06,-114.32 -109.43,0 -199.91,40.35 -271.44,120.44 -71.53,80.08 -106.38,189.51 -105.16,327.08l750.16 0zm696.41 -792.34l462.21 0 0 259.83c165.68,-199.91 363.15,-300.19 592.41,-300.19 121.66,0 227.43,25.07 316.7,75.21 89.87,50.13 163.23,125.94 220.09,227.43 83.76,-101.49 174.25,-177.3 270.85,-227.43 96.59,-50.14 199.92,-75.21 309.96,-75.21 139.39,0 257.39,28.14 354.61,84.98 96.59,56.86 168.73,140.01 216.42,250.06 34.85,80.7 51.96,212.15 51.96,393.72l0 1215.42 -502.55 0 0 -1086.41c0,-188.92 -17.12,-310.58 -51.96,-364.99 -46.46,-71.53 -118.61,-107.6 -215.2,-107.6 -70.31,0 -136.96,21.39 -199.32,64.19 -61.74,43.41 -106.99,106.38 -134.49,188.92 -27.53,83.14 -40.97,213.98 -40.97,393.11l0 912.78 -502.55 0 0 -1041.78c0,-184.64 -9.18,-304.47 -26.9,-357.66 -17.74,-53.8 -45.25,-94.15 -83.15,-120.44 -37.29,-26.28 -88.66,-39.12 -152.85,-39.12 -77.63,0 -147.33,20.78 -209.08,62.36 -62.37,42.18 -106.38,102.09 -133.29,180.96 -26.9,78.86 -40.35,209.7 -40.35,391.9l0 923.78 -502.55 0 0 -1903.82z"/>
   <path class="fil1" d="M17186.46 12086.37l-454.86 -80.71c51.37,-185.86 140.01,-323.42 265.35,-412.68 125.33,-89.26 311.8,-133.89 558.79,-133.89 224.37,0 391.89,26.28 501.94,79.48 109.43,53.18 187.08,120.44 231.72,202.37 44.62,81.92 67.24,231.7 67.24,450.59l-7.33 586.91c0,166.91 7.94,290.4 23.84,369.89 15.89,79.47 45.86,164.45 89.87,254.94l-498.87 0c-12.86,-33.02 -29.36,-81.93 -48.32,-146.73 -7.93,-29.96 -14.05,-49.52 -17.72,-58.69 -85.59,84.37 -177.3,147.33 -275.12,189.52 -97.81,42.18 -201.75,63.58 -312.41,63.58 -195.04,0 -349.09,-53.18 -461.59,-159.56 -112.49,-105.77 -168.74,-240.27 -168.74,-402.9 0,-106.99 25.68,-202.98 77.03,-287.35 51.36,-83.76 122.89,-148.57 215.83,-193.19 92.3,-44.63 225.58,-83.76 399.83,-117.39 234.77,-44.02 398,-85.59 488.49,-123.49l0 -50.75c0,-97.82 -23.84,-167.52 -71.53,-209.7 -48.3,-41.58 -138.79,-62.35 -271.46,-62.35 -89.86,0 -159.56,17.72 -209.69,53.79 -50.75,35.46 -91.1,98.43 -122.29,188.31zm674.97 407.17c-64.19,21.4 -166.3,47.08 -306.3,77.03 -139.39,29.96 -231.1,59.3 -273.9,87.43 -65.41,47.08 -98.43,105.76 -98.43,177.29 0,70.92 26.29,131.45 78.87,182.81 52.58,51.35 119.22,77.03 200.52,77.03 90.49,0 177.3,-29.95 259.84,-89.25 60.53,-45.86 100.89,-100.89 119.83,-166.91 12.84,-42.8 19.57,-124.73 19.57,-245.17l0 -100.26zm813.8 -1250.88l0 -465.87 502.55 0 0 465.87 -502.55 0zm0 2160.61l0 -1903.82 502.55 0 0 1903.82 -502.55 0z"/>
   <polygon class="fil2" points="15984.55,13450.95 15984.55,12948.4 16487.1,12948.4 16487.1,13450.95 "/>
  </g>
 </g>
</svg>
