<svg enable-background="new 0 0 100 100" viewBox="0 0 100 100" xmlns="http://www.w3.org/2000/svg"><g id="Layer_1"/><g id="zap-moving"><g><path d="m91.349 44.238c-.643-1.556-2.165-2.572-3.849-2.572h-15.308l6.816-23.855c.521-1.827-.26-3.774-1.896-4.736-1.628-.96-3.715-.698-5.058.645l-33.333 33.334c-1.192 1.192-1.548 2.983-.903 4.541.645 1.556 2.165 2.572 3.849 2.572h18.681l-10.01 23.36c-.787 1.835-.161 3.971 1.493 5.09.71.48 1.524.716 2.334.716 1.076 0 2.142-.415 2.948-1.221l33.333-33.333c1.192-1.192 1.55-2.982.903-4.541z"/><path d="m37.5 75h-25c-2.301 0-4.167 1.864-4.167 4.167s1.866 4.167 4.167 4.167h25c2.301 0 4.167-1.864 4.167-4.167s-1.866-4.167-4.167-4.167z"/><path d="m16.667 62.5h12.5c2.301 0 4.167-1.864 4.167-4.167s-1.866-4.167-4.167-4.167h-12.5c-2.301 0-4.167 1.864-4.167 4.167s1.866 4.167 4.167 4.167z"/><path d="m25 20.833h29.167c2.303 0 4.167-1.866 4.167-4.167s-1.864-4.166-4.167-4.166h-29.167c-2.301 0-4.167 1.866-4.167 4.167s1.866 4.166 4.167 4.166z"/><path d="m20.833 41.667h12.5c2.301 0 4.167-1.866 4.167-4.167s-1.866-4.167-4.167-4.167h-12.5c-2.301 0-4.167 1.866-4.167 4.167s1.866 4.167 4.167 4.167z"/></g></g></svg>