<svg id="Layer_1" height="512" viewBox="0 0 90 90" width="512" xmlns="http://www.w3.org/2000/svg" xmlns:svg="http://www.w3.org/2000/svg"><g clip-rule="evenodd" fill-rule="evenodd"><path id="path2" d="m46.024162 12.131187c-6.396-.213-12.858 1.532-18.437 5.256-6.266 4.187-10.645 10.37-12.662 17.282-.557-.068-1.224-.038-2.016.186-2.9570004.839-5.1810004 3.262-6.1810004 5.396-1.297 2.781-1.844 6.459-1.267 10.256.573 3.785 2.172 6.905 4.1720001 8.842 2.0060003 1.938 4.2710003 2.568 6.5210003 2.095 3.35-.715 5.011-1.25 4.542-4.371l-2.271-15.129c.458-8.188 4.697-15.896 11.787-20.636 9.49-6.339 21.932-5.933 30.984 1.016 6.297 4.828 9.953 12.062 10.375 19.656l-1.588 10.583c-3.542 9.693-12.323 16.407-22.484 17.36h-6.766c-1.746 0-3.152 1.406-3.152 3.15v1.662c0 1.745 1.406 3.151 3.152 3.151h8.531c1.745 0 3.145-1.406 3.145-3.151v-.869c7.662-1.87 14.35-6.579 18.705-13.146l2.733.725c2.224.577 4.516-.158 6.521-2.095 2-1.938 3.598-5.057 4.172-8.842.579-3.797.016-7.469-1.266-10.256-1.287-2.787-3.204-4.557-5.417-5.192-.927-.267-1.933-.365-2.796-.391-1.824-6.25-5.579-11.934-10.991-16.084-5.321-4.083-11.65-6.244-18.046-6.454z"/><path id="path4" d="m56.009162 39.349187c2.255 0 4.083 1.828 4.088 4.089-.005 2.255-1.833 4.088-4.088 4.088-2.261 0-4.094-1.833-4.094-4.088 0-2.26 1.834-4.089 4.094-4.089zm-11.01 0c2.26 0 4.088 1.828 4.088 4.089 0 2.255-1.828 4.088-4.088 4.088-2.262 0-4.09-1.833-4.09-4.088 0-2.26 1.828-4.089 4.09-4.089zm-11.006 0c2.255 0 4.088 1.828 4.088 4.089 0 2.255-1.833 4.088-4.088 4.088-2.26 0-4.089-1.833-4.089-4.088 0-2.26 1.829-4.089 4.089-4.089zm11.006-17.562c-11.99 0-21.652 9.344-21.652 21.651 0 5.911 2.235 11.135 5.876 14.968l-1.292 5.792c-.426 1.906.896 3.188 2.609 2.234l5.656-3.155c2.688 1.167 5.661 1.812 8.803 1.812 11.994 0 21.65-9.338 21.65-21.651 0-12.307-9.656-21.651-21.65-21.651z"/></g></svg>