<?xml version="1.0"?>
<svg xmlns="http://www.w3.org/2000/svg" id="Solid" viewBox="0 0 64 64"><path d="M59.25.25H4.75a3.5,3.5,0,0,0,0,7h54.5a3.5,3.5,0,0,0,0-7Z"/><path d="M59,46.25H57.75V10.75H6.25v35.5H5a1.75,1.75,0,0,0,0,3.5H30.25v3.823a5.25,5.25,0,1,0,3.5,0V49.75H59a1.75,1.75,0,0,0,0-3.5Zm-27,14a1.75,1.75,0,1,1,1.75-1.75A1.752,1.752,0,0,1,32,60.25Zm-17-46H33a1.75,1.75,0,0,1,0,3.5H15a1.75,1.75,0,0,1,0-3.5Zm0,7H33a1.75,1.75,0,0,1,0,3.5H15a1.75,1.75,0,0,1,0-3.5ZM13.25,30A1.751,1.751,0,0,1,15,28.25H25a1.75,1.75,0,0,1,0,3.5H15A1.751,1.751,0,0,1,13.25,30Zm37.5,5a1.75,1.75,0,0,1-3.5,0V33.225l-9.013,9.012a1.748,1.748,0,0,1-2.581-.117l-3.864-4.637-5.653,4.846a1.75,1.75,0,1,1-2.278-2.658l7-6a1.75,1.75,0,0,1,2.483.209l3.774,4.528,7.657-7.658H43a1.75,1.75,0,0,1,0-3.5h6A1.751,1.751,0,0,1,50.75,29Z"/></svg>
